<svg width="333" height="387" viewBox="0 0 333 387" fill="none" xmlns="http://www.w3.org/2000/svg">
<path d="M75.6007 135.313L62.9785 144.591L194.431 369.221L207.053 359.943L75.6007 135.313Z" fill="#CCCCCC"/>
<path d="M45.5508 50.7784L74.7544 100.682C75.3199 101.649 75.5197 102.827 75.3099 103.959C75.1001 105.09 74.4978 106.082 73.6356 106.716C72.7733 107.35 71.7217 107.574 70.7121 107.339C69.7025 107.103 68.8176 106.428 68.252 105.462L34.679 48.0915C30.122 47.665 25.5416 48.5081 21.3456 50.5458L57.9248 113.053C58.49 114.02 58.6895 115.198 58.4796 116.329C58.2697 117.461 57.6675 118.452 56.8054 119.086C55.9433 119.72 54.8919 119.944 53.8825 119.709C52.873 119.474 51.9882 118.799 51.4225 117.833L14.8433 55.3255C11.5039 58.8269 8.98895 63.1995 7.52231 68.054L41.0953 125.424C41.6605 126.391 41.86 127.569 41.6501 128.7C41.4402 129.832 40.8379 130.823 39.9758 131.457C39.1137 132.091 38.0624 132.315 37.053 132.08C36.0435 131.845 35.1587 131.17 34.593 130.204L5.38945 80.3004C4.63938 94.2148 8.68717 110.707 17.5583 125.866C34.0455 154.04 60.9396 166.935 77.6278 154.668C94.3159 142.401 94.4788 109.617 77.9916 81.4427C69.1205 66.2835 57.2367 55.5514 45.5508 50.7784Z" fill="#CCCCCC"/>
<path d="M132.194 104.583H117.099V373.217H132.194V104.583Z" fill="#CCCCCC"/>
<path d="M124.418 122.013C144.375 122.013 160.554 94.6997 160.554 61.0066C160.554 27.3136 144.375 0 124.418 0C104.46 0 88.2816 27.3136 88.2816 61.0066C88.2816 94.6997 104.46 122.013 124.418 122.013Z" fill="#CCCCCC"/>
<path d="M124.418 111.202C140.838 111.202 154.15 88.7287 154.15 61.0066C154.15 33.2845 140.838 10.8113 124.418 10.8113C107.997 10.8113 94.6854 33.2845 94.6854 61.0066C94.6854 88.7287 107.997 111.202 124.418 111.202Z" fill="#CCCCCC"/>
<path d="M166.5 387C258.455 387 333 382.206 333 376.293C333 370.38 258.455 365.586 166.5 365.586C74.5446 365.586 0 370.38 0 376.293C0 382.206 74.5446 387 166.5 387Z" fill="#CCCCCC"/>
<path d="M264.967 376.136C202.57 363.53 138.664 363.53 76.2662 376.136C75.275 376.337 74.2565 376.292 73.2826 376.004C72.3086 375.716 71.4029 375.192 70.6294 374.469C69.8559 373.745 69.2334 372.841 68.8059 371.818C68.3784 370.796 68.1563 369.681 68.1552 368.552V272.735H273.078V368.552C273.077 369.681 272.855 370.796 272.428 371.818C272 372.841 271.378 373.745 270.604 374.469C269.831 375.192 268.925 375.716 267.951 376.004C266.977 376.292 265.958 376.337 264.967 376.136V376.136Z" fill="#E5C686"/>
<path d="M254.324 201.988C249.593 201.983 244.893 202.865 240.421 204.596C233.897 188.738 223.474 175.294 210.372 165.843C197.271 156.392 182.037 151.324 166.456 151.236C150.876 151.148 135.596 156.042 122.411 165.345C109.225 174.647 98.6805 187.972 92.0144 203.755C85.4504 201.692 78.5401 201.426 71.8654 202.981C65.1907 204.536 58.9472 207.867 53.6609 212.691C48.3746 217.516 44.2002 223.694 41.4895 230.705C38.7787 237.715 37.611 245.354 38.0846 252.976C38.5583 260.598 40.6594 267.981 44.211 274.503C47.7626 281.025 52.6607 286.495 58.4927 290.452C64.3247 294.408 70.9198 296.737 77.7224 297.24C84.5249 297.743 91.3358 296.406 97.5811 293.343C105.088 306.163 115.34 316.671 127.403 323.906C139.465 331.142 152.953 334.875 166.634 334.765C180.316 334.655 193.754 330.704 205.722 323.275C217.691 315.845 227.808 305.173 235.149 292.234C240.884 295.479 247.201 297.226 253.624 297.344C260.048 297.462 266.412 295.947 272.24 292.915C278.067 289.882 283.205 285.409 287.269 279.833C291.334 274.256 294.218 267.72 295.707 260.715C297.195 253.71 297.249 246.419 295.863 239.388C294.478 232.356 291.69 225.768 287.708 220.117C283.726 214.466 278.654 209.9 272.872 206.76C267.09 203.62 260.749 201.989 254.324 201.988V201.988Z" fill="#E5C686"/>
<path d="M84.6223 243.001H83.7074C83.6762 229.35 86.3718 215.865 91.5966 203.534L92.4234 203.973C87.2568 216.167 84.5912 229.502 84.6223 243.001V243.001Z" fill="#2D4639"/>
<path d="M248.378 243.001H247.463C247.491 229.813 244.947 216.778 240.01 204.807L240.841 204.378C245.834 216.483 248.406 229.665 248.378 243.001V243.001Z" fill="#2D4639"/>
<path d="M68.2656 317.322L68.0449 316.327C68.3031 316.255 94.3022 309.098 132.404 305.547C167.57 302.27 220.542 301.48 273.19 316.327L272.967 317.321C220.448 302.511 167.592 303.298 132.499 306.568C94.4654 310.111 68.5231 317.25 68.2656 317.322Z" fill="#2D4639"/>
<path d="M68.2656 331.164L68.0449 330.169C68.3031 330.097 94.3022 322.94 132.404 319.389C167.57 316.112 220.542 315.321 273.19 330.169L272.967 331.163C220.448 316.353 167.592 317.141 132.499 320.409C94.4654 323.952 68.5231 331.092 68.2656 331.164Z" fill="#2D4639"/>
<path d="M68.2656 345.006L68.0449 344.01C68.3031 343.939 94.3022 336.782 132.404 333.231C167.57 329.954 220.542 329.163 273.19 344.011L272.967 345.005C220.448 330.195 167.592 330.983 132.499 334.251C94.4654 337.794 68.5231 344.934 68.2656 345.006Z" fill="#2D4639"/>
<path d="M236.607 269.739L225.524 265.516L236.164 204.648L228.849 203.903C221.716 210.037 212.217 212.441 200.032 210.611L219.539 243.653L209.592 251.522L177.862 208.866C176.432 206.944 175.648 204.52 175.648 202.016C175.648 199.696 176.322 197.438 177.567 195.584C178.812 193.73 180.561 192.38 182.551 191.737L216.435 180.798L256.114 185.767C262.113 196.017 262.347 203.146 253.215 205.203L236.607 269.739Z" fill="#2F2E41"/>
<path d="M225.263 293.418C224.117 293.337 223.005 292.954 222.016 292.3C221.027 291.647 220.19 290.741 219.572 289.657C218.954 288.572 218.573 287.34 218.46 286.059C218.347 284.779 218.505 283.487 218.921 282.288L224.431 266.408C227.23 260.466 231.071 261.209 235.607 266.408L237.823 273.695C238.006 274.295 238.078 274.931 238.036 275.563C237.994 276.195 237.839 276.811 237.579 277.374L232.208 289.012C231.557 290.423 230.554 291.59 229.32 292.373C228.087 293.155 226.677 293.518 225.263 293.418V293.418Z" fill="#2F2E41"/>
<path d="M210.939 272.623C209.793 272.542 208.681 272.159 207.692 271.505C206.703 270.852 205.866 269.946 205.248 268.862C204.63 267.777 204.249 266.545 204.136 265.265C204.023 263.984 204.181 262.692 204.597 261.493L210.107 245.613C212.906 239.671 216.747 240.414 221.283 245.613L223.499 252.9C223.682 253.501 223.754 254.136 223.712 254.768C223.67 255.4 223.515 256.016 223.255 256.579L217.884 268.217C217.233 269.628 216.23 270.795 214.996 271.578C213.763 272.36 212.353 272.724 210.939 272.623Z" fill="#2F2E41"/>
<path d="M217.987 122.664C224.843 122.664 230.4 116.435 230.4 108.751C230.4 101.067 224.843 94.8384 217.987 94.8384C211.131 94.8384 205.573 101.067 205.573 108.751C205.573 116.435 211.131 122.664 217.987 122.664Z" fill="#FFB9B9"/>
<path d="M237.272 128.378L220.204 138.315L216.657 120.428L228.405 112.229L237.272 128.378Z" fill="#FFB9B9"/>
<path d="M257.887 188.251C240.856 182.486 225.402 179.499 214.219 184.028C218.073 171.874 210.958 153.314 203.135 134.34C206.511 129.395 211.893 127.479 217.987 126.639C224.655 132.065 229.304 128.582 232.839 120.179C240.548 119.832 247.977 122.892 255.227 128.129C249.559 148.475 250.58 168.509 257.887 188.251Z" fill="#2D4639"/>
<path d="M213.997 187.009C211.307 188.786 208.825 191.779 206.46 195.456C202.463 192.714 198.946 189.592 196.175 185.878C194.235 183.245 192.912 180.111 192.327 176.761C191.741 173.41 191.911 169.948 192.822 166.69L200.397 139.098C201.026 136.806 202.248 134.775 203.909 133.263L204.908 132.353L214.884 153.47L204.908 174.339C206.173 178.14 209.901 182.531 213.997 187.009Z" fill="#2D4639"/>
<path d="M217.43 208.047C216.526 208.509 215.538 208.729 214.545 208.689C213.552 208.649 212.58 208.351 211.707 207.818C210.835 207.285 210.085 206.532 209.517 205.617C208.949 204.703 208.578 203.654 208.434 202.552L206.786 189.902L212.549 186.424L219.864 197.156C220.448 198.013 220.852 199.007 221.047 200.063C221.241 201.119 221.221 202.211 220.987 203.258C220.753 204.304 220.312 205.278 219.696 206.107C219.081 206.936 218.306 207.599 217.43 208.047V208.047Z" fill="#FFB9B9"/>
<path d="M230.511 108.142L228.392 108.213L222.512 98.8787C214.979 99.7515 208.806 103.42 203.582 109.039L203.052 105.081C202.547 101.307 203.352 97.4596 205.3 94.33C207.249 91.2005 210.194 89.0268 213.529 88.2562H213.529C215.28 87.8514 217.087 87.8464 218.84 88.2414C220.594 88.6365 222.258 89.4235 223.734 90.5555C225.21 91.6876 226.467 93.1413 227.431 94.8301C228.395 96.5188 229.045 98.4078 229.343 100.384L230.511 108.142Z" fill="#2F2E41"/>
<path d="M206.674 195.461C206.262 194.448 206.066 193.34 206.101 192.227C206.136 191.114 206.403 190.025 206.878 189.047C207.354 188.069 208.026 187.229 208.841 186.592C209.657 185.955 210.594 185.54 211.577 185.379L222.864 183.531L225.967 189.991L216.392 198.188C215.627 198.843 214.74 199.297 213.797 199.515C212.855 199.733 211.88 199.71 210.947 199.448C210.013 199.186 209.144 198.691 208.405 198.001C207.665 197.311 207.073 196.443 206.674 195.461V195.461Z" fill="#FFB9B9"/>
<path d="M260.037 183.955C249.299 184.889 237.575 188.642 225.302 193.966C225.15 189.882 223.828 185.962 221.534 182.786C232.681 179.495 242.796 175.633 249.02 169.619L245.252 137.818L253.454 127.384L254.868 128.211C256.043 128.895 257.077 129.849 257.902 131.01C258.727 132.17 259.325 133.513 259.657 134.949C263.12 150.047 264.658 164.512 263.601 178.124C263.737 179.415 263.451 180.717 262.796 181.79C262.141 182.862 261.161 183.631 260.037 183.955V183.955Z" fill="#2D4639"/>
<path d="M43.8599 373.274C33.8734 380.275 23.8869 380.272 13.9003 373.265C13.5842 373.047 13.3275 372.736 13.158 372.366C12.9886 371.996 12.9129 371.581 12.9392 371.165L16.0553 325.764H41.2592L44.8193 371.15C44.85 371.568 44.7766 371.989 44.6073 372.364C44.438 372.739 44.1793 373.054 43.8599 373.274V373.274Z" fill="#2D4639"/>
<path d="M28.541 331.413C35.5651 331.413 41.2592 329.114 41.2592 326.277C41.2592 323.441 35.5651 321.141 28.541 321.141C21.517 321.141 15.8228 323.441 15.8228 326.277C15.8228 329.114 21.517 331.413 28.541 331.413Z" fill="#2D4639"/>
<path d="M38.5097 324.543C31.8825 329.768 25.4669 329.768 19.2631 324.543V316.326H38.5097V324.543Z" fill="#E5C686"/>
<path d="M28.8864 320.435C34.2012 320.435 38.5097 318.595 38.5097 316.326C38.5097 314.057 34.2012 312.217 28.8864 312.217C23.5716 312.217 19.2631 314.057 19.2631 316.326C19.2631 318.595 23.5716 320.435 28.8864 320.435Z" fill="#E5C686"/>
<path d="M29.3447 316.326C29.8508 316.326 30.2612 316.096 30.2612 315.812C30.2612 315.529 29.8508 315.299 29.3447 315.299C28.8385 315.299 28.4281 315.529 28.4281 315.812C28.4281 316.096 28.8385 316.326 29.3447 316.326Z" fill="#CCCCCC"/>
<path d="M33.6723 316.326C34.1785 316.326 34.5888 316.096 34.5888 315.812C34.5888 315.529 34.1785 315.299 33.6723 315.299C33.1661 315.299 32.7558 315.529 32.7558 315.812C32.7558 316.096 33.1661 316.326 33.6723 316.326Z" fill="#CCCCCC"/>
<path d="M31.5085 317.538C32.0147 317.538 32.425 317.309 32.425 317.025C32.425 316.741 32.0147 316.511 31.5085 316.511C31.0023 316.511 30.592 316.741 30.592 317.025C30.592 317.309 31.0023 317.538 31.5085 317.538Z" fill="#CCCCCC"/>
<path d="M22.8531 317.538C23.3593 317.538 23.7696 317.309 23.7696 317.025C23.7696 316.741 23.3593 316.511 22.8531 316.511C22.347 316.511 21.9366 316.741 21.9366 317.025C21.9366 317.309 22.347 317.538 22.8531 317.538Z" fill="#CCCCCC"/>
<path d="M25.017 316.326C25.5231 316.326 25.9335 316.096 25.9335 315.812C25.9335 315.529 25.5231 315.299 25.017 315.299C24.5108 315.299 24.1005 315.529 24.1005 315.812C24.1005 316.096 24.5108 316.326 25.017 316.326Z" fill="#CCCCCC"/>
<path d="M27.1808 318.145C27.687 318.145 28.0973 317.915 28.0973 317.631C28.0973 317.347 27.687 317.118 27.1808 317.118C26.6746 317.118 26.2643 317.347 26.2643 317.631C26.2643 317.915 26.6746 318.145 27.1808 318.145Z" fill="#CCCCCC"/>
<path d="M320.597 373.274C310.611 380.275 300.625 380.272 290.638 373.265C290.322 373.047 290.065 372.736 289.896 372.366C289.726 371.996 289.65 371.581 289.677 371.165L292.793 325.764H317.997L321.557 371.15C321.588 371.568 321.514 371.989 321.345 372.364C321.176 372.739 320.917 373.054 320.597 373.274V373.274Z" fill="#2D4639"/>
<path d="M305.279 331.413C312.303 331.413 317.997 329.114 317.997 326.277C317.997 323.441 312.303 321.141 305.279 321.141C298.255 321.141 292.56 323.441 292.56 326.277C292.56 329.114 298.255 331.413 305.279 331.413Z" fill="#2D4639"/>
<path d="M315.247 324.543C308.62 329.768 302.205 329.768 296.001 324.543V316.326H315.247V324.543Z" fill="#E5C686"/>
<path d="M305.624 320.435C310.939 320.435 315.247 318.595 315.247 316.326C315.247 314.057 310.939 312.217 305.624 312.217C300.309 312.217 296.001 314.057 296.001 316.326C296.001 318.595 300.309 320.435 305.624 320.435Z" fill="#E5C686"/>
<path d="M306.082 316.326C306.588 316.326 306.999 316.096 306.999 315.812C306.999 315.529 306.588 315.299 306.082 315.299C305.576 315.299 305.166 315.529 305.166 315.812C305.166 316.096 305.576 316.326 306.082 316.326Z" fill="#CCCCCC"/>
<path d="M310.41 316.326C310.916 316.326 311.326 316.096 311.326 315.812C311.326 315.529 310.916 315.299 310.41 315.299C309.904 315.299 309.493 315.529 309.493 315.812C309.493 316.096 309.904 316.326 310.41 316.326Z" fill="#CCCCCC"/>
<path d="M308.246 317.538C308.752 317.538 309.163 317.309 309.163 317.025C309.163 316.741 308.752 316.511 308.246 316.511C307.74 316.511 307.33 316.741 307.33 317.025C307.33 317.309 307.74 317.538 308.246 317.538Z" fill="#CCCCCC"/>
<path d="M299.591 317.538C300.097 317.538 300.507 317.309 300.507 317.025C300.507 316.741 300.097 316.511 299.591 316.511C299.085 316.511 298.674 316.741 298.674 317.025C298.674 317.309 299.085 317.538 299.591 317.538Z" fill="#CCCCCC"/>
<path d="M301.755 316.326C302.261 316.326 302.671 316.096 302.671 315.812C302.671 315.529 302.261 315.299 301.755 315.299C301.248 315.299 300.838 315.529 300.838 315.812C300.838 316.096 301.248 316.326 301.755 316.326Z" fill="#CCCCCC"/>
<path d="M303.918 318.145C304.425 318.145 304.835 317.915 304.835 317.631C304.835 317.347 304.425 317.118 303.918 317.118C303.412 317.118 303.002 317.347 303.002 317.631C303.002 317.915 303.412 318.145 303.918 318.145Z" fill="#CCCCCC"/>
</svg>
